<svg xmlns="http://www.w3.org/2000/svg" viewBox="0 0 512 512" fill="#ff6b35">
  <path d="M256 0C114.6 0 0 114.6 0 256s114.6 256 256 256s256-114.6 256-256S397.4 0 256 0zM256 464c-114.7 0-208-93.31-208-208S141.3 48 256 48s208 93.31 208 208S370.7 464 256 464z"/>
  <path d="M256 304c-26.5 0-48-21.5-48-48s21.5-48 48-48s48 21.5 48 48S282.5 304 256 304z"/>
  <path d="M256 128c-17.67 0-32 14.33-32 32v96c0 17.67 14.33 32 32 32s32-14.33 32-32v-96C288 142.3 273.7 128 256 128z"/>
  <path d="M256 384c-17.67 0-32 14.33-32 32s14.33 32 32 32s32-14.33 32-32S273.7 384 256 384z"/>
</svg>
